<svg xmlns="http://www.w3.org/2000/svg" width="229.467" height="300.16" viewBox="0 0 60.713 79.417"><g fill-rule="evenodd"><path fill="#ec8133" d="M23.245 6.768c0 3.738-2.944 6.768-6.577 6.768-3.632 0-6.577-3.03-6.577-6.768S13.036 0 16.668 0c3.633 0 6.577 3.03 6.577 6.768z"/><path fill="#b1c630" d="M44.788 8.198c.29 1.316-.572 4.004-3.814 5.148-3.241 1.143-11.438 4.384-15.251 8.006-3.297 3.133-6.29 6.291-6.862 8.58-.382 1.524.19 5.338 2.668 5.718 2.479.381 7.244-.38 8.77-.572 1.526-.19 3.431-1.143 4.193-.381.763.762 0 2.86-1.906 4.766-1.906 1.907-6.1 5.91-7.816 6.863-1.716.954-6.48 3.24-8.388 3.05-1.708-.17-3.923-3.549-4.766-5.91-.954-2.669-2.097-7.245-.954-11.438 1.01-3.7 2.48-11.057 14.108-19.064C31.44 8.37 38.497 6.29 40.403 5.91c1.906-.38 4.002.572 4.385 2.288z"/><path fill="#1867a9" d="M45.359 19.636c3.053-.142 7.244.381 8.388 4.385 1.143 4.003-1.709 8.829-4.384 12.773-3.622 5.338-12.386 12.417-20.208 14.107-7.054 1.525 1.716-1.715 5.909-6.1 3.375-3.53 7.435-6.863 8.388-11.439.616-2.95-1.525-4.765-7.053-4.384-5.528.38-9.913 2.097-10.103.953-.192-1.144 10.865-9.914 19.063-10.295zm7.062 46.248v1.143h6.243v.961h-6.108v3.386h8.157V70.23H54.34v-1.053l6.107-.046v-3.248zm6.243-8.006v7.09h1.782v-7.09zM54.963 61.4v1.967h-1.248v1.007h3.074l-.043-5.537h-1.783v1.83h-1.248v.733zm-1.248 1.967h-1.248V61.4h1.248v-.732h-1.248v-1.83h-1.783l.044 5.536h2.987zm-6.33-5.489v13.266h1.56V57.878zM37.8 59.524v7.825h1.65c2.14.045 4.28 0 5.885-.414v4.21h1.516V57.877h-1.516v4.987H44.13v.913h1.205v2.106c-.714.275-1.74.32-2.541.227v-5.35l1.56-.092v-1.189H41.1v6.632l-1.604.048v-5.4h1.16v-1.235zm-4.99-1.51v7.962h1.78v-3.478h1.918V61.4H34.59v-3.386zm-4.012.321h-1.785c0 1.647-.356 2.973-.98 4.07-.49.733-.937 1.328-1.783 1.832l.802 1.006c.668-.367 1.025-.686 1.605-1.235.58-.55.981-1.098 1.249-1.602.177.504.578 1.053 1.158 1.602.579.549.803.915 1.47 1.282l.847-1.238c-.89-.456-1.158-.868-1.649-1.646-.623-1.05-.934-2.424-.934-4.071zM6.554 67.027c.49 0 .935.184 1.247.504.401.32.58.824.58 1.465 0 .594-.179 1.097-.58 1.463-.312.32-.757.456-1.247.456v1.008h.043c.98 0 1.784-.23 2.452-.732.757-.55 1.113-1.282 1.113-2.195 0-.962-.356-1.694-1.113-2.243-.668-.457-1.471-.732-2.452-.732h-.043zM4.77 68.996c0-.641.178-1.146.534-1.465.358-.32.758-.504 1.25-.504v-1.006c-.938 0-1.784.275-2.453.732-.757.549-1.114 1.281-1.114 2.243 0 .913.357 1.644 1.114 2.195.67.502 1.515.732 2.453.732v-1.008c-.492 0-.892-.136-1.25-.456-.356-.366-.534-.869-.534-1.463zm4.011-6.543v3.568h1.785v-7.96H8.78v3.247H7.222v1.145zm-4.056-4.164H2.942c0 1.601-.356 2.928-.982 4.027A6.03 6.03 0 0 1 0 64.191l.757 1.099a10.074 10.074 0 0 0 1.829-1.375 6.309 6.309 0 0 0 1.247-1.599c.18.501.58 1.05 1.16 1.6a9.9 9.9 0 0 0 1.918 1.42l.846-1.145c-.892-.458-1.605-1.098-2.095-1.875-.625-1.053-.937-2.38-.937-4.027zM30.58 71.923c1.07 0 1.963-.23 2.674-.732.803-.596 1.203-1.372 1.203-2.333 0-.961-.4-1.739-1.203-2.333-.711-.504-1.604-.733-2.675-.733v1.143c.49 0 .892.184 1.249.503.401.322.58.824.58 1.42 0 .594-.179 1.05-.58 1.418-.357.32-.758.458-1.249.458zm-3.88-3.065c0 .961.402 1.737 1.205 2.333.712.457 1.604.732 2.673.732v-1.19c-.49 0-.936-.138-1.292-.457-.356-.367-.535-.824-.535-1.418 0-.596.179-1.098.535-1.42a1.916 1.916 0 0 1 1.292-.503v-1.143c-1.069 0-1.96.23-2.673.733-.803.594-1.205 1.372-1.205 2.333zm-3.877 2.516-.045-1.143h-6.775l.044-2.746H14.22v3.889zm-2.54-6.68v-1.189h-7.757v1.19h2.808v1.876h1.427v-1.877z"/><path fill="#1867a9" d="M22.912 68.034V57.74H21.04v7.734l-2.05.044V66.8l2.05-.046v1.281zm-4.992-7.776c0 .456-.134.823-.447 1.142-.31.32-.667.458-1.115.458v1.052c.894 0 1.651-.23 2.275-.779.624-.503.936-1.142.936-1.873 0-.734-.312-1.373-.936-1.877-.624-.55-1.381-.778-2.275-.778v1.053c.448 0 .804.137 1.115.457.313.32.446.687.446 1.145zm-1.562 1.6c-.445 0-.8-.139-1.112-.458-.313-.319-.446-.686-.446-1.142 0-.458.133-.824.446-1.145.312-.32.667-.457 1.112-.457v-1.053c-.89 0-1.648.229-2.272.778-.623.504-.935 1.143-.935 1.877 0 .73.312 1.37.935 1.873.624.55 1.382.779 2.272.779zM11.75 78.303h-.612v-1.945H9.345v1.945h-.613v-3.921h.613v1.573h1.793v-1.573h.612zm22.357 0h-.611v-1.826H31.7v1.826h-.611V74.62h.611v1.478h1.795V74.62h.611zm-19.102-1.417h-2.08c0 .309.099.565.299.766a.986.986 0 0 0 .73.302c.275 0 .56-.043.852-.13l.08.32c-.27.106-.582.159-.938.159-.45 0-.814-.13-1.09-.39-.275-.259-.412-.607-.412-1.047 0-.431.124-.776.371-1.033.248-.257.567-.384.959-.384.349 0 .641.118.876.357.235.238.353.556.353.952zm-.501-.33a.73.73 0 0 0-.22-.539.68.68 0 0 0-.491-.22.795.795 0 0 0-.836.759zm3.016 1.677h-.42a1.558 1.558 0 0 1-.05-.438 1.108 1.108 0 0 1-.96.508.774.774 0 0 1-.542-.217.723.723 0 0 1-.234-.556c0-.135.028-.252.083-.355a.72.72 0 0 1 .24-.26c.108-.072.237-.127.388-.169.152-.04.333-.068.542-.082l.464-.038v-.131c0-.465-.22-.697-.662-.697-.105 0-.236.023-.396.068-.16.046-.297.099-.41.161l-.11-.29c.377-.192.728-.288 1.052-.288.63 0 .945.328.945.986v1.169c0 .235.023.445.07.63zm-.49-.808v-.499a7.646 7.646 0 0 0-.766.095.863.863 0 0 0-.359.16.387.387 0 0 0-.151.321.37.37 0 0 0 .129.297.479.479 0 0 0 .331.115.834.834 0 0 0 .435-.131c.146-.086.273-.206.382-.358zm4.52.698a2.1 2.1 0 0 1-.83.18c-.498 0-.747-.257-.747-.772v-1.663h-.538v-.35h.538v-.749h.419v.75h.938v.349h-.938v1.562c0 .166.037.294.112.386a.37.37 0 0 0 .302.138c.227 0 .451-.05.672-.15zm2.761.18h-.481v-1.746c0-.243-.045-.417-.136-.527-.09-.107-.234-.162-.427-.162-.29 0-.604.152-.94.459v1.976h-.48V74.3h.48v1.676c.344-.307.706-.459 1.087-.459.597 0 .897.308.897.924zm5.035-.093a.86.86 0 0 1-.311.05.502.502 0 0 1-.3-.11 2.29 2.29 0 0 1-.385-.406c-.302.373-.668.559-1.095.559-.344 0-.634-.107-.873-.319a1.018 1.018 0 0 1-.355-.79c0-.202.06-.395.185-.574.122-.18.351-.385.684-.618-.313-.364-.47-.68-.47-.954a.83.83 0 0 1 .268-.643.952.952 0 0 1 .672-.244.92.92 0 0 1 .622.21c.164.14.245.334.245.584a.902.902 0 0 1-.168.514c-.111.165-.318.357-.621.574l.86 1.039c.131-.333.229-.564.293-.693.065-.128.376-.567.561-.567l.03.342c-.366.643-.248.375-.2.318.107-.127-.25.43-.426.907.143.17.254.295.334.373.08.08.17.12.27.12a.976.976 0 0 0 .18-.023zm-1.24-.758-.983-1.179c-.224.162-.383.311-.479.45a.8.8 0 0 0-.142.46c0 .207.075.384.227.526a.74.74 0 0 0 .536.215c.324 0 .604-.158.84-.472zm-.878-1.682c.225-.154.382-.291.471-.409a.613.613 0 0 0 .133-.378c0-.146-.045-.256-.134-.33a.497.497 0 0 0-.327-.114.534.534 0 0 0-.373.134c-.1.09-.15.214-.15.372-.002.202.125.443.38.725zm-8.306 2.533h-.5v-3.94h.5zm32.388-1.311h-2.08c0 .31.098.565.298.767.198.2.443.3.731.3.275 0 .559-.043.853-.129l.078.32c-.268.106-.58.16-.937.16-.45 0-.813-.13-1.088-.39-.277-.26-.414-.608-.414-1.047 0-.432.123-.775.37-1.032.249-.257.568-.386.961-.386.349 0 .64.119.875.358.235.237.352.556.352.953zm-.502-.33a.733.733 0 0 0-.219-.539.682.682 0 0 0-.492-.219.823.823 0 0 0-.579.21.798.798 0 0 0-.255.549zM36.897 78.34h-.419a1.467 1.467 0 0 1-.05-.44c-.236.34-.557.51-.96.51a.77.77 0 0 1-.543-.217.719.719 0 0 1-.234-.556.703.703 0 0 1 .324-.616c.105-.07.236-.126.387-.167.152-.042.332-.07.542-.085l.464-.036V76.6c0-.463-.222-.697-.662-.697-.103 0-.236.024-.396.069-.16.044-.297.1-.412.16l-.106-.289c.376-.194.725-.29 1.05-.29.63 0 .945.33.945.986v1.17c0 .236.023.446.07.63zm-.49-.81v-.498a7.605 7.605 0 0 0-.764.095.834.834 0 0 0-.361.16.379.379 0 0 0-.151.322.37.37 0 0 0 .129.297.478.478 0 0 0 .33.114.837.837 0 0 0 .436-.13c.145-.087.272-.207.382-.36zm1.963-1.905h-.457v3.792h.457V77.95a1.138 1.138 0 0 0 .921.459c.356 0 .637-.138.847-.415.208-.277.314-.625.314-1.043 0-.413-.1-.749-.3-1.008-.201-.258-.475-.388-.825-.388-.192 0-.374.039-.546.115a1.089 1.089 0 0 0-.411.304zm.818.279a.66.66 0 0 1 .577.297c.138.198.207.454.207.769 0 .302-.073.557-.218.762a.677.677 0 0 1-.583.308.776.776 0 0 1-.452-.153 1.14 1.14 0 0 1-.35-.376v-1.138c.225-.313.497-.469.82-.469zm2.482-.279h-.456v3.792h.456V77.95c.095.14.227.248.391.333.164.085.34.126.53.126.355 0 .637-.138.845-.415.21-.277.315-.625.315-1.043 0-.413-.1-.749-.3-1.008-.198-.258-.474-.388-.826-.388-.19 0-.37.039-.542.115a1.08 1.08 0 0 0-.413.304zm.816.279c.248 0 .441.098.58.297.137.198.206.454.206.769 0 .302-.073.557-.217.762a.679.679 0 0 1-.584.308.787.787 0 0 1-.453-.153 1.106 1.106 0 0 1-.348-.376v-1.138c.223-.313.497-.469.816-.469zm5.448.575c0-.616-.263-.924-.784-.924-.33 0-.645.153-.944.46v-.39h-.419v2.714h.42v-1.976c.29-.306.563-.459.817-.459.168 0 .292.055.37.163.08.11.12.285.12.527v1.745h.42zm5.544-.815a2.11 2.11 0 0 0-.634-.11c-.297 0-.534.07-.71.206a.67.67 0 0 0-.268.56c0 .107.018.204.057.291a.614.614 0 0 0 .17.225c.072.062.153.11.24.142.084.033.22.08.403.145.226.08.37.157.43.23a.38.38 0 0 1 .093.252.384.384 0 0 1-.185.33.832.832 0 0 1-.48.125 1.33 1.33 0 0 1-.635-.16l-.067.35c.188.106.427.16.718.16.29 0 .53-.077.718-.227a.742.742 0 0 0 .285-.614.694.694 0 0 0-.294-.604 1.453 1.453 0 0 0-.38-.183l-.336-.11c-.153-.051-.255-.105-.306-.163a.299.299 0 0 1-.077-.202c0-.123.055-.22.168-.293.11-.073.262-.11.453-.11.174 0 .36.037.558.11zm2.302 0a2.11 2.11 0 0 0-.636-.11c-.296 0-.533.07-.71.206a.668.668 0 0 0-.267.56c0 .107.019.204.058.291a.605.605 0 0 0 .168.225.81.81 0 0 0 .24.142c.085.033.22.08.404.145.225.08.37.157.43.23a.381.381 0 0 1 .092.252.383.383 0 0 1-.184.33.839.839 0 0 1-.48.125c-.225 0-.438-.054-.636-.16l-.067.35c.188.106.427.16.718.16.292 0 .53-.077.719-.227a.742.742 0 0 0 .285-.614.771.771 0 0 0-.075-.347.664.664 0 0 0-.22-.256 1.43 1.43 0 0 0-.379-.184l-.337-.11c-.152-.051-.255-.105-.306-.163a.293.293 0 0 1-.075-.202c0-.123.054-.22.166-.293.112-.073.262-.11.454-.11.175 0 .36.037.557.11zm-10.87 2.642h-.614v-2.751h.614z"/><path fill="#2c2c2b" d="M44.921 74.528c0 .16-.128.288-.29.288a.288.288 0 0 1-.289-.288.29.29 0 1 1 .58 0z"/></g></svg>